<?xml version="1.0" standalone="no"?>
<!DOCTYPE svg PUBLIC "-//W3C//DTD SVG 20010904//EN"
 "http://www.w3.org/TR/2001/REC-SVG-20010904/DTD/svg10.dtd">
<svg version="1.0" xmlns="http://www.w3.org/2000/svg"
 width="1024.000000pt" height="1024.000000pt" viewBox="0 0 1024.000000 1024.000000"
 preserveAspectRatio="xMidYMid meet">

<g transform="translate(0.000000,1024.000000) scale(0.100000,-0.100000)"
fill="#000000" stroke="none">
<path d="M0 5120 l0 -5120 5120 0 5120 0 0 5120 0 5120 -5120 0 -5120 0 0
-5120z m7655 4525 c49 -9 94 -20 98 -24 5 -5 -14 -14 -42 -21 l-51 -12 0
-1258 c0 -1244 0 -1259 20 -1265 61 -19 81 -122 35 -177 -14 -16 -25 -36 -25
-45 0 -8 170 -182 378 -387 l377 -373 5 -684 c6 -735 5 -739 -45 -806 -51 -66
-22 -64 -793 -61 -634 3 -700 5 -728 20 -44 24 -92 82 -99 120 -3 18 -5 345
-3 727 l3 694 371 366 c205 201 375 376 379 389 4 15 0 32 -14 51 -44 61 -15
150 53 167 l26 6 0 1250 0 1250 -37 -7 c-62 -11 -220 -73 -350 -137 -476 -233
-1005 -751 -1525 -1493 -337 -481 -684 -1086 -649 -1134 72 -102 88 -176 54
-252 -43 -96 -96 -135 -223 -163 -81 -19 -131 -49 -154 -95 -11 -21 -12 -31
-4 -39 24 -24 -3 -22 -46 3 -53 31 -60 40 -51 63 6 16 7 16 16 -1 14 -24 28
-13 52 42 16 37 20 69 22 161 1 86 5 123 18 146 42 80 117 137 195 150 40 6
45 11 82 73 22 36 57 107 79 157 210 484 639 1130 1041 1565 l89 96 -65 64
-65 64 -22 -26 c-12 -14 -81 -95 -152 -180 -186 -219 -222 -266 -408 -526
-249 -348 -372 -536 -532 -807 -81 -140 -86 -151 -69 -163 14 -10 16 -18 8
-31 -5 -9 -68 -117 -139 -239 -123 -212 -129 -221 -152 -212 -35 13 -35 12
-17 -22 15 -30 15 -33 -5 -52 -16 -17 -23 -19 -33 -9 -21 21 -29 13 -13 -12 9
-14 15 -37 13 -53 -2 -22 -9 -29 -33 -33 -26 -5 -42 -27 -150 -215 -229 -395
-305 -534 -311 -565 -4 -17 -16 -37 -27 -45 -18 -13 -26 -11 -77 16 -111 59
-152 108 -116 138 8 6 19 25 26 40 6 16 19 31 29 34 10 2 65 86 126 188 59
101 137 231 172 289 34 57 63 109 63 116 0 14 -46 24 -111 24 l-49 0 0 61 c0
61 -36 191 -65 232 -14 20 -12 22 57 43 59 19 81 33 127 78 47 46 65 57 111
67 30 6 67 18 82 25 21 11 44 12 98 6 48 -6 73 -5 79 2 4 6 34 55 65 109 36
62 62 97 70 94 8 -3 29 22 55 66 132 226 423 655 642 947 253 336 492 614 719
833 365 354 670 530 1030 597 125 23 341 21 485 -5z m-4365 -282 c51 -46 114
-131 182 -249 l36 -62 -142 -40 c-77 -23 -211 -60 -296 -82 -85 -23 -246 -68
-358 -101 -111 -32 -205 -59 -207 -59 -9 0 -5 275 5 334 5 32 17 68 27 79 26
29 220 120 344 161 131 43 227 64 300 65 54 1 59 -1 109 -46z m553 -395 c102
-14 107 -26 38 -90 -38 -35 -68 -52 -109 -64 -103 -28 -120 -35 -146 -55 -14
-11 -26 -30 -26 -41 0 -51 114 -294 163 -346 29 -31 14 -54 -43 -68 l-43 -10
2 -135 c1 -74 7 -156 13 -183 20 -94 -3 -150 -77 -185 -78 -37 -122 -40 -252
-20 -65 10 -120 19 -123 19 -3 0 -5 23 -5 51 0 49 -1 51 -72 117 -107 100
-117 128 -78 232 21 56 15 88 -36 189 -43 86 -82 121 -136 121 -62 0 -113 -74
-98 -142 5 -20 31 -56 65 -93 58 -60 82 -107 61 -119 -6 -4 -11 -36 -11 -71 0
-68 -6 -75 -59 -75 -28 0 -59 17 -102 57 -15 14 -54 35 -88 47 -63 23 -65 24
-144 147 -10 15 -24 69 -33 120 -8 51 -16 94 -18 96 -1 2 -36 -1 -77 -6 -103
-13 -209 -1 -209 23 0 23 103 110 187 159 100 58 233 99 1028 316 101 28 119
30 230 25 66 -3 155 -10 198 -16z m-1130 -945 c133 -91 221 -160 340 -266 68
-61 87 -74 87 -58 0 11 -8 24 -17 30 -20 11 -22 9 32 26 22 6 79 -87 143 -235
95 -217 211 -592 215 -694 l2 -40 -135 -17 c-74 -10 -135 -16 -136 -16 -1 1
-9 43 -18 93 -9 50 -28 127 -42 170 -33 99 -161 377 -222 481 -76 130 -203
243 -302 267 l-25 7 25 -18 c44 -29 148 -142 191 -205 57 -83 135 -251 207
-443 54 -146 102 -307 102 -343 0 -9 -17 -38 -39 -66 -35 -46 -71 -107 -71
-120 0 -3 28 14 63 38 54 38 71 45 132 51 156 15 478 74 659 121 66 17 60 20
100 -56 34 -64 50 -156 41 -235 l-7 -66 -51 -33 c-217 -139 -661 -277 -969
-302 -82 -6 -91 -5 -142 20 -67 33 -138 109 -218 231 -70 107 -305 577 -343
688 -15 42 -29 77 -32 77 -7 0 7 -69 37 -185 48 -183 141 -417 228 -570 144
-256 244 -343 405 -353 98 -6 156 6 380 77 100 32 198 61 218 65 l36 6 7 -57
c3 -32 22 -251 41 -488 19 -236 46 -563 60 -726 14 -163 25 -303 25 -311 0
-23 -97 -46 -240 -58 -182 -15 -878 -15 -1050 -1 -210 17 -333 32 -351 42 -14
7 -17 54 -23 381 -7 369 -8 373 -30 398 -69 76 -80 209 -72 860 8 663 20 881
62 1075 57 269 188 480 419 678 39 33 79 74 90 92 30 49 46 65 62 65 8 0 65
-34 126 -77z m-713 -3228 l0 -185 -52 0 c-55 0 -212 -30 -262 -49 -127 -50
365 -115 1059 -142 557 -21 1358 33 1513 101 24 11 60 20 80 20 19 0 33 3 30
6 -17 16 -214 45 -449 65 l-137 12 -6 151 c-4 83 -9 163 -12 179 l-6 27 1476
0 1476 0 0 -147 c0 -82 5 -165 10 -185 16 -57 70 -120 130 -153 l55 -29 720
-1 720 0 46 27 c25 15 57 44 72 65 53 77 61 108 65 271 l4 152 205 0 c203 0
204 0 228 -25 30 -29 31 -53 5 -155 -70 -275 -228 -566 -419 -773 -203 -219
-544 -389 -916 -454 -94 -17 -249 -18 -2455 -18 -2485 0 -2455 -1 -2681 45
-132 27 -235 62 -365 124 -317 152 -525 375 -710 761 -83 174 -112 259 -126
370 -10 76 -9 96 1 109 12 14 56 16 357 16 l344 0 0 -185z m-107 -1735 c82
-26 154 -88 188 -162 21 -46 24 -68 24 -168 0 -105 -2 -119 -27 -166 -27 -52
-91 -117 -134 -136 -13 -6 -24 -16 -24 -21 0 -5 54 -104 120 -219 66 -116 120
-212 120 -214 0 -3 -54 -3 -121 -2 l-120 3 -119 205 -119 205 -91 0 -91 0 -2
-205 -2 -205 -112 -3 -113 -3 0 556 0 555 279 0 c251 0 285 -2 344 -20z m2237
-535 l0 -555 -110 0 -110 0 0 555 0 555 110 0 110 0 0 -555z m900 455 c0 -73
-3 -100 -12 -100 -7 -1 -120 0 -251 0 l-238 1 3 -131 3 -131 215 -2 215 -2 3
-97 3 -98 -221 -2 -221 -3 1 -222 1 -223 -121 0 -120 0 0 555 0 555 370 0 370
0 0 -100z m310 0 l0 -100 -105 0 -105 0 0 100 0 100 105 0 105 0 0 -100z
m1141 -82 c1 -101 0 -190 -1 -198 -1 -9 12 -2 32 17 83 80 233 104 334 52 65
-33 108 -97 123 -182 6 -36 11 -182 11 -340 l0 -277 -110 0 -110 0 0 263 c0
148 -5 278 -10 299 -15 54 -61 88 -118 88 -57 0 -104 -26 -129 -72 -16 -29
-18 -65 -21 -303 l-2 -270 -105 -3 -105 -3 0 556 0 555 105 0 105 0 1 -182z
m879 82 l0 -100 -110 0 -110 0 0 100 0 100 110 0 110 0 0 -100z m-4687 -195
c32 -8 70 -22 85 -32 115 -71 182 -203 182 -360 l0 -73 -256 0 -256 0 7 -42
c18 -110 78 -162 179 -155 57 3 62 6 103 52 l42 48 73 -28 c40 -15 77 -31 81
-35 20 -18 -83 -139 -144 -170 -61 -32 -158 -45 -234 -32 -127 21 -220 87
-273 195 -83 169 -60 401 54 526 91 102 223 141 357 106z m899 -5 c57 -17 119
-69 147 -125 25 -49 26 -55 32 -330 4 -162 11 -295 18 -315 6 -19 11 -36 11
-37 0 -2 -49 -3 -109 -3 l-108 0 -7 51 -7 50 -29 -31 c-34 -37 -120 -78 -181
-86 -102 -14 -211 33 -265 116 -32 48 -44 155 -24 214 34 105 120 148 329 166
145 13 161 20 161 65 0 77 -47 109 -148 103 -61 -4 -67 -7 -101 -44 l-36 -41
-84 23 c-46 13 -86 26 -89 29 -9 9 25 72 62 112 39 44 104 79 168 93 53 11
210 5 260 -10z m2320 9 c98 -21 174 -73 209 -142 25 -49 24 -50 -85 -66 l-83
-13 -30 30 c-55 55 -182 53 -219 -3 -15 -23 -15 -27 0 -50 23 -35 56 -49 171
-74 108 -24 196 -59 234 -94 37 -35 61 -95 61 -160 0 -68 -16 -110 -60 -161
-137 -155 -475 -131 -590 42 -46 69 -42 76 49 102 l79 22 44 -45 c35 -37 53
-47 99 -56 113 -24 207 31 179 104 -12 33 -54 52 -160 76 -186 40 -275 97
-300 191 -54 199 151 350 402 297z m2169 -5 c73 -22 131 -80 153 -153 13 -45
16 -108 16 -358 l0 -303 -104 0 -105 0 -3 278 c-3 258 -4 279 -24 312 -24 42
-56 60 -109 60 -49 0 -102 -26 -129 -63 -20 -27 -21 -44 -24 -308 l-3 -279
-105 0 -104 0 0 405 0 405 105 0 105 0 0 -46 0 -46 35 31 c85 75 187 97 296
65z m739 -9 c19 -9 50 -31 68 -48 l32 -31 0 42 0 42 111 0 111 0 -5 -412 c-5
-449 -8 -477 -60 -555 -55 -82 -153 -129 -288 -140 -130 -10 -261 28 -367 106
-50 37 -50 39 9 116 l41 54 56 -38 c105 -71 222 -91 309 -52 60 28 76 58 81
154 l4 82 -28 -27 c-70 -65 -195 -87 -297 -52 -107 36 -195 158 -218 303 -29
175 52 380 172 442 83 42 202 48 269 14z m-3460 -400 l0 -405 -105 0 -105 0 0
405 0 405 105 0 105 0 0 -405z m2020 0 l0 -405 -110 0 -110 0 0 405 0 405 110
0 110 0 0 -405z"/>
<path d="M7330 9593 c-149 -12 -342 -65 -495 -137 -94 -44 -269 -159 -390
-255 -80 -64 -254 -229 -296 -282 l-28 -36 65 -52 65 -53 147 144 c341 332
637 531 937 628 72 23 132 44 134 46 5 4 -65 3 -139 -3z"/>
<path d="M4853 6721 c-65 -41 -87 -139 -43 -186 66 -70 169 -45 220 54 46 89
-87 189 -177 132z"/>
<path d="M7540 6602 c-50 -26 -83 -92 -77 -155 13 -144 193 -199 278 -84 33
45 38 139 10 185 -44 69 -137 93 -211 54z"/>
<path d="M7236 5945 c-53 -19 -106 -63 -141 -120 -42 -68 -47 -161 -12 -237
46 -103 135 -162 242 -161 72 0 119 18 175 69 66 59 85 105 85 200 0 73 -3 86
-30 130 -70 113 -200 162 -319 119z m159 -176 c30 -27 35 -37 35 -76 0 -36 -6
-50 -29 -74 -24 -24 -38 -29 -76 -29 -64 0 -105 39 -105 100 0 51 12 75 48 94
45 25 87 20 127 -15z"/>
<path d="M7668 5602 c-130 -196 -290 -438 -356 -537 l-118 -180 35 -7 c20 -4
53 -7 74 -7 l38 -1 256 388 c320 484 443 672 443 676 0 5 -95 26 -118 26 -11
0 -97 -121 -254 -358z"/>
<path d="M7832 5387 c-45 -14 -118 -80 -145 -131 -31 -58 -31 -184 0 -241 49
-91 137 -144 241 -145 75 0 116 15 172 66 111 100 120 264 20 377 -54 61 -113
87 -192 86 -35 -1 -78 -6 -96 -12z m138 -152 c41 -21 60 -53 60 -101 0 -51
-35 -99 -80 -109 -63 -14 -130 45 -130 115 0 42 15 67 53 90 38 24 59 25 97 5z"/>
<path d="M3380 8699 c-36 -11 -105 -31 -155 -44 -130 -35 -145 -62 -105 -179
14 -43 19 -80 17 -141 -3 -105 11 -126 113 -177 133 -67 173 -64 224 15 38 58
73 93 129 126 40 25 44 36 23 66 -7 11 -21 56 -30 100 -9 48 -33 114 -58 165
-50 98 -55 101 -158 69z"/>
<path d="M3572 8142 c-29 -14 -53 -55 -40 -68 6 -5 100 46 110 60 19 28 -20
33 -70 8z"/>
<path d="M3156 7467 c3 -10 9 -15 12 -12 3 3 0 11 -7 18 -10 9 -11 8 -5 -6z"/>
<path d="M3171 7374 c0 -11 3 -14 6 -6 3 7 2 16 -1 19 -3 4 -6 -2 -5 -13z"/>
<path d="M2758 4252 c-54 -9 -98 -19 -98 -23 0 -21 491 -36 630 -19 55 7 102
16 105 20 21 34 -466 51 -637 22z"/>
<path d="M1497 2738 l2 -153 145 0 c130 0 147 2 173 21 83 61 83 197 0 258
-25 19 -46 21 -175 24 l-147 4 2 -154z"/>
<path d="M2511 2608 c-44 -29 -69 -72 -73 -123 l-3 -40 154 -3 153 -3 -7 38
c-16 86 -70 144 -142 150 -39 4 -55 0 -82 -19z"/>
<path d="M3443 2334 c-46 -7 -99 -18 -118 -24 -99 -33 -99 -157 1 -190 66 -22
167 19 199 80 15 30 21 136 8 142 -5 2 -45 -1 -90 -8z"/>
<path d="M8675 2611 c-99 -44 -141 -223 -81 -346 32 -64 72 -96 129 -102 57
-5 114 29 147 87 22 39 25 57 25 140 0 108 -20 161 -76 201 -34 24 -111 35
-144 20z"/>
</g>
</svg>
