<?xml version="1.0" standalone="no"?>
<!DOCTYPE svg PUBLIC "-//W3C//DTD SVG 20010904//EN"
 "http://www.w3.org/TR/2001/REC-SVG-20010904/DTD/svg10.dtd">
<svg version="1.0" xmlns="http://www.w3.org/2000/svg"
 width="389.000000pt" height="383.000000pt" viewBox="0 0 389.000000 383.000000"
 preserveAspectRatio="xMidYMid meet">

<g transform="translate(0.000000,383.000000) scale(0.100000,-0.100000)"
fill="#000000" stroke="none">
<path d="M2655 3606 c-161 -37 -286 -132 -474 -355 -121 -145 -192 -241 -299
-405 -46 -70 -102 -146 -123 -167 -22 -22 -39 -43 -39 -49 0 -5 -18 -10 -39
-10 -32 0 -49 -8 -90 -44 -36 -30 -58 -42 -74 -39 -12 2 -44 -3 -71 -11 -27
-8 -53 -13 -57 -10 -4 2 -10 23 -14 47 -4 23 -24 92 -45 154 -23 71 -33 116
-27 122 6 6 2 20 -11 39 -27 37 -14 55 28 40 75 -26 113 9 103 95 -6 46 -6 47
-41 47 -34 0 -35 1 -16 15 10 8 34 15 52 15 42 0 50 21 27 68 -10 21 -19 56
-19 80 -2 42 -1 43 51 67 29 13 53 29 53 35 0 15 -44 30 -88 30 -34 1 -40 5
-77 62 -22 34 -52 70 -67 81 l-27 20 -83 -22 c-102 -27 -166 -63 -174 -97 -4
-14 -4 -51 -1 -82 l6 -57 -54 -40 c-76 -56 -79 -69 -12 -63 l53 4 17 -45 c15
-44 15 -45 -8 -73 -13 -15 -26 -36 -30 -45 -3 -10 -20 -27 -37 -38 -73 -46
-127 -155 -148 -300 -5 -38 -10 -197 -10 -353 l0 -283 25 -25 c24 -24 25 -29
23 -152 -2 -121 -2 -123 -7 -42 l-6 85 -103 -1 c-133 -1 -140 -6 -118 -93 33
-127 113 -254 209 -332 65 -52 192 -112 277 -130 94 -20 1648 -21 1730 -1 83
21 228 95 287 147 74 65 147 179 178 278 27 85 26 126 -3 128 -9 1 -35 3 -57
4 -22 1 -46 3 -52 4 -10 1 -13 43 -13 174 -1 113 -5 181 -13 197 -17 36 -240
250 -260 250 -21 0 -22 14 -2 44 15 23 11 56 -6 56 -5 0 -9 203 -9 474 0 444
1 475 18 478 15 4 15 5 -3 15 -34 19 -164 24 -230 9z m75 -35 c-81 -25 -166
-81 -283 -184 -74 -66 -79 -69 -95 -53 -16 17 -13 21 53 82 100 91 241 162
325 162 l25 0 -25 -7z m100 -475 c0 -326 -3 -467 -11 -472 -11 -6 -8 -44 6
-76 5 -14 2 -18 -14 -18 -26 0 -245 -214 -260 -254 -6 -15 -11 -103 -11 -197
l0 -169 -82 -1 c-67 -1 -590 0 -934 1 l-71 0 -12 173 c-7 94 -15 181 -17 192
-4 16 7 26 52 50 31 17 64 40 73 52 10 12 23 18 29 14 14 -8 -20 -63 -80 -128
-21 -24 -38 -49 -38 -57 0 -13 49 -56 64 -56 11 0 46 44 46 58 0 28 94 172
113 172 9 0 22 10 27 23 15 34 34 61 48 70 9 6 11 18 8 33 -5 17 3 37 28 71
19 27 41 65 50 86 45 110 288 460 433 625 36 41 39 42 60 27 l23 -16 -53 -62
c-116 -137 -289 -402 -381 -586 -26 -50 -42 -71 -55 -71 -11 0 -31 -14 -46
-32 -23 -28 -26 -38 -21 -76 3 -24 1 -52 -4 -62 -23 -43 21 -68 54 -31 10 11
31 23 47 26 66 15 92 103 43 151 l-25 26 76 136 c254 453 500 730 726 817 35
13 74 24 87 25 l22 0 0 -464z m-1420 234 c-41 -13 -392 -110 -399 -110 -40 1
179 75 299 100 90 20 146 25 100 10z m-240 -214 c10 -13 10 -16 -3 -16 -19 0
-40 60 -30 86 6 15 9 12 14 -18 3 -20 11 -44 19 -52z m60 -244 c0 -5 -6 -12
-14 -15 -9 -4 -29 20 -61 71 l-46 77 60 -62 c34 -33 61 -65 61 -71z m-96 -105
c31 -49 55 -104 106 -241 l22 -58 82 5 81 6 -50 -14 c-27 -7 -70 -14 -96 -14
-25 -1 -50 -6 -57 -13 -17 -17 -15 -2 3 26 14 21 12 30 -26 122 -56 135 -87
194 -118 228 -25 27 -25 28 -3 17 13 -7 38 -36 56 -64z m-91 -411 c70 -106 94
-121 190 -113 81 7 83 1 7 -13 -108 -20 -149 6 -232 146 -46 79 -108 220 -108
246 0 7 20 -31 44 -84 24 -53 69 -135 99 -182z m872 134 c0 -18 -6 -26 -23
-28 -13 -2 -25 3 -28 12 -10 26 4 48 28 44 17 -2 23 -10 23 -28z m935 -95 c9
0 17 13 20 30 l5 30 18 -25 c9 -13 17 -30 17 -37 0 -20 -38 -53 -60 -53 -25 0
-60 34 -60 59 0 11 8 27 18 37 16 17 17 16 22 -12 3 -17 11 -29 20 -29z m-45
-200 c60 -59 20 -155 -64 -155 -41 0 -63 17 -80 63 -13 33 6 88 36 106 33 19
82 13 108 -14z m131 -88 c-33 -57 -83 -143 -111 -190 -44 -75 -54 -87 -77 -87
-16 0 -28 3 -28 6 0 7 197 341 213 362 5 6 22 12 37 12 l28 0 -62 -103z m85
-136 c61 -61 20 -151 -70 -151 -56 0 -95 74 -67 128 31 60 90 70 137 23z
m-1554 -133 c-3 -8 -6 -5 -6 6 -1 11 2 17 5 13 3 -3 4 -12 1 -19z m156 -95
c-7 -2 -21 -2 -30 0 -10 3 -4 5 12 5 17 0 24 -2 18 -5z m54 -49 c-3 -3 -12 -4
-19 -1 -8 3 -5 6 6 6 11 1 17 -2 13 -5z m-824 -11 c-7 -2 -19 -2 -25 0 -7 3
-2 5 12 5 14 0 19 -2 13 -5z m740 0 c-7 -2 -21 -2 -30 0 -10 3 -4 5 12 5 17 0
24 -2 18 -5z m1375 0 c-65 -2 -171 -2 -235 0 -65 1 -12 3 117 3 129 0 182 -2
118 -3z m-2005 -10 c-7 -2 -19 -2 -25 0 -7 3 -2 5 12 5 14 0 19 -2 13 -5z
m484 1 c-3 -3 -12 -4 -19 -1 -8 3 -5 6 6 6 11 1 17 -2 13 -5z m-159 -41 c-26
-2 -71 -2 -100 0 -29 2 -8 3 47 3 55 0 79 -1 53 -3z m-105 -40 c-7 -2 -21 -2
-30 0 -10 3 -4 5 12 5 17 0 24 -2 18 -5z"/>
<path d="M2722 2161 c-8 -5 -12 -21 -10 -37 2 -22 9 -30 27 -32 29 -4 53 22
44 46 -11 30 -36 39 -61 23z"/>
<path d="M2936 1935 c-19 -20 -20 -26 -3 -49 26 -36 84 4 61 42 -15 23 -38 26
-58 7z"/>
<path d="M1997 1164 c-4 -4 -7 -22 -7 -41 0 -33 1 -33 46 -33 l45 0 -3 38 c-3
35 -5 37 -38 40 -20 2 -39 0 -43 -4z"/>
<path d="M2730 1130 l0 -40 40 0 40 0 0 40 0 40 -40 0 -40 0 0 -40z"/>
<path d="M550 951 l0 -211 45 0 45 0 0 80 0 80 29 0 c25 0 34 -10 75 -80 l48
-80 49 0 c27 0 49 3 49 8 0 4 -23 41 -50 82 l-50 75 23 17 c12 10 25 18 28 18
12 0 29 53 29 91 0 45 -21 88 -54 110 -14 9 -61 15 -143 17 l-123 4 0 -211z
m216 118 c8 -6 14 -24 14 -40 0 -38 -33 -59 -92 -59 l-48 0 0 61 0 62 56 -6
c30 -3 62 -11 70 -18z"/>
<path d="M1542 953 l3 -208 43 -3 42 -3 0 210 0 211 -45 0 -45 0 2 -207z"/>
<path d="M1690 950 l0 -210 45 0 45 0 0 85 0 85 80 0 80 0 0 35 0 35 -80 0
-80 0 0 50 0 50 90 0 90 0 0 40 0 40 -135 0 -135 0 0 -210z"/>
<path d="M2410 950 l0 -210 40 0 40 0 0 105 c0 92 3 108 20 125 23 23 39 25
63 8 13 -11 17 -34 19 -123 l3 -110 43 -3 42 -3 0 121 c0 137 -10 169 -60 190
-35 15 -86 7 -112 -17 -17 -15 -18 -13 -18 55 l0 72 -40 0 -40 0 0 -210z"/>
<path d="M980 1043 c-22 -12 -43 -34 -57 -63 -40 -78 -25 -161 38 -214 30 -26
39 -28 96 -24 52 3 68 9 93 33 16 16 30 37 30 47 0 26 -61 25 -85 -2 -26 -29
-69 -26 -94 6 -12 15 -21 31 -21 35 0 5 48 9 106 9 l107 0 -5 43 c-10 88 -54
136 -129 144 -30 3 -55 -2 -79 -14z m105 -68 c38 -37 32 -45 -39 -45 -60 0
-64 1 -59 20 6 22 40 50 61 50 7 0 24 -11 37 -25z"/>
<path d="M1294 1046 c-35 -15 -64 -51 -64 -78 0 -27 66 -25 80 2 7 14 21 20
43 20 37 0 57 -15 57 -42 0 -15 -9 -18 -47 -19 -68 -1 -115 -20 -136 -57 -16
-27 -17 -37 -7 -67 6 -19 21 -42 33 -50 32 -22 99 -19 131 6 l26 20 0 -20 c0
-18 6 -21 40 -21 l40 0 0 123 c0 137 -8 159 -66 183 -42 17 -90 17 -130 0z
m116 -186 c0 -25 -6 -33 -36 -47 -42 -20 -69 -9 -69 28 0 18 8 27 35 36 58 20
70 17 70 -17z"/>
<path d="M2185 1050 c-41 -16 -67 -55 -63 -95 4 -47 34 -72 109 -88 48 -11 54
-15 54 -37 0 -22 -5 -25 -37 -28 -30 -3 -40 1 -52 21 -12 17 -25 23 -48 23
-29 -1 -33 -4 -30 -26 1 -14 16 -37 32 -52 55 -51 181 -33 209 29 30 65 -4
114 -89 132 -67 14 -83 26 -69 52 13 25 55 24 76 -1 18 -20 83 -29 83 -11 0
27 -23 62 -49 76 -32 16 -93 19 -126 5z"/>
<path d="M2990 1053 c-8 -3 -23 -12 -32 -21 -16 -14 -18 -13 -18 1 0 13 -9 17
-40 17 l-40 0 0 -155 0 -155 39 0 39 0 4 104 c2 85 6 108 22 125 23 25 49 27
70 5 13 -12 16 -39 16 -125 l0 -109 40 0 40 0 0 126 c0 69 -5 134 -10 145 -20
36 -86 58 -130 42z"/>
<path d="M3232 1040 c-41 -25 -62 -73 -62 -142 0 -63 25 -110 71 -133 36 -19
82 -14 111 12 17 15 18 14 18 -15 0 -17 -7 -38 -16 -46 -20 -20 -78 -21 -94
-1 -13 16 -75 21 -84 7 -9 -15 19 -56 52 -75 41 -24 121 -25 161 -1 55 33 61
56 61 238 l0 166 -40 0 c-22 0 -40 -5 -40 -10 0 -6 -13 -4 -30 5 -39 20 -68
19 -108 -5z m120 -67 c24 -22 25 -109 1 -135 -20 -22 -51 -23 -75 -1 -24 22
-25 109 -1 135 20 22 51 23 75 1z"/>
<path d="M1992 898 l3 -153 43 -3 42 -3 0 155 0 156 -45 0 -46 0 3 -152z"/>
<path d="M2730 895 l0 -155 40 0 40 0 0 155 0 155 -40 0 -40 0 0 -155z"/>
</g>
</svg>
